<?xml version="1.0" standalone="no"?>
<!DOCTYPE svg PUBLIC "-//W3C//DTD SVG 20010904//EN"
 "http://www.w3.org/TR/2001/REC-SVG-20010904/DTD/svg10.dtd">
<svg version="1.0" xmlns="http://www.w3.org/2000/svg"
 width="450.000000pt" height="450.000000pt" viewBox="0 0 450.000000 450.000000"
 preserveAspectRatio="xMidYMid meet">
<metadata>
Created by potrace 1.11, written by Peter Selinger 2001-2013
</metadata>
<g transform="translate(0.000000,450.000000) scale(0.100000,-0.100000)"
fill="#000000" stroke="none">
<path d="M1075 2819 c-119 -27 -216 -129 -231 -243 l-7 -48 -55 4 c-90 8 -112
57 -53 121 14 16 42 38 61 48 44 24 5 16 -55 -12 -80 -37 -121 -91 -104 -136
12 -34 47 -47 139 -53 89 -5 117 -24 40 -27 -144 -5 -281 -93 -341 -218 -50
-104 -33 -207 40 -249 137 -79 401 100 401 272 0 35 -6 49 -29 73 -48 47 -118
35 -194 -34 -42 -39 -107 -133 -107 -156 0 -9 7 -3 16 14 24 47 84 103 138
130 164 82 216 -60 71 -194 -76 -70 -171 -99 -245 -76 -25 8 -50 54 -50 93 0
83 114 213 245 278 68 34 80 36 135 31 33 -3 60 -3 60 0 0 3 -9 16 -20 30 -26
33 -25 50 3 58 69 22 206 125 233 176 39 77 -7 138 -91 118z m49 -45 c35 -13
7 -78 -58 -135 -23 -21 -85 -57 -148 -86 -17 -8 -15 18 6 63 25 52 91 121 141
147 35 19 38 19 59 11z"/>
<path d="M2956 2730 c-101 -51 -260 -212 -423 -431 -72 -95 -133 -198 -133
-223 0 -26 -175 -75 -214 -60 -29 11 -7 52 71 131 69 71 94 130 66 158 -21 22
-100 12 -163 -20 -47 -24 -50 -24 -38 -5 11 17 10 22 -2 30 -37 24 -55 11
-174 -125 -83 -96 -121 -121 -228 -156 -113 -36 -193 -26 -186 25 2 14 19 26
59 42 72 27 172 78 210 106 56 41 50 91 -12 108 -100 27 -231 -38 -307 -152
-30 -45 -58 -49 -92 -12 l-24 25 27 50 c46 81 21 127 -40 75 -33 -28 -46 -67
-33 -102 10 -25 -16 -58 -85 -110 -62 -46 -159 -83 -170 -64 -6 9 47 81 104
143 20 22 41 45 46 51 6 7 23 26 39 44 24 26 27 34 16 47 -22 26 -48 17 -105
-40 -64 -65 -174 -201 -176 -218 -5 -50 9 -67 58 -67 67 0 170 54 253 132 l36
33 33 -22 c19 -13 47 -23 62 -23 21 0 27 -4 23 -15 -11 -27 16 -86 44 -97 57
-23 167 -5 284 46 l38 16 -12 -26 c-10 -21 -9 -27 3 -35 8 -5 19 -9 24 -9 6 0
60 48 120 108 130 126 206 181 264 189 58 8 53 -8 -29 -97 -78 -83 -105 -130
-96 -166 11 -44 98 -44 227 -1 38 13 69 20 69 15 0 -20 42 -48 73 -48 44 0
141 26 204 55 l51 23 6 -24 c14 -54 121 -73 195 -34 22 10 62 45 90 77 28 31
51 52 51 46 0 -14 54 -28 93 -25 25 2 27 -1 27 -37 0 -93 121 -108 217 -27
l31 26 5 -29 c12 -59 108 -65 230 -16 56 23 61 24 73 7 7 -9 14 -20 14 -23 1
-18 92 -26 155 -15 30 6 129 38 140 46 6 4 27 13 48 19 20 7 37 17 37 23 0 6
-7 7 -17 3 -149 -63 -274 -85 -298 -51 -22 29 -10 48 41 68 89 35 168 75 212
107 33 25 42 37 42 62 0 25 -6 32 -35 45 -121 50 -318 -75 -349 -222 -6 -27
-15 -33 -70 -53 -74 -26 -139 -25 -144 2 -5 24 78 129 213 272 11 12 33 37 49
56 16 18 61 70 100 113 39 44 97 109 129 144 31 35 57 68 57 72 0 10 -26 20
-50 20 -11 0 -58 -44 -112 -103 -124 -137 -244 -271 -292 -327 -90 -103 -203
-213 -238 -231 -51 -26 -86 -25 -97 4 -31 82 177 277 235 220 9 -9 14 -26 11
-40 -6 -33 14 -24 26 12 9 25 6 32 -17 52 -36 31 -92 30 -160 -2 -54 -26 -151
-113 -161 -145 -9 -28 -55 -40 -93 -24 -36 15 -36 16 -20 95 11 53 10 60 -8
80 -17 19 -27 21 -80 16 -111 -8 -237 -100 -271 -198 -16 -45 -20 -49 -88 -75
-46 -19 -89 -28 -125 -29 -54 0 -55 0 -58 31 -3 32 -5 30 142 157 181 158 402
392 436 462 37 77 -1 106 -84 65z m54 -53 c0 -39 -162 -220 -355 -397 -38 -35
-87 -80 -107 -99 -58 -54 -46 -25 34 79 140 185 379 430 420 430 4 0 8 -6 8
-13z m17 -422 c-10 -21 -12 -38 -5 -71 8 -37 7 -48 -11 -73 -47 -65 -133 -111
-180 -96 -58 18 -8 138 91 218 32 26 108 60 116 52 2 -2 -3 -15 -11 -30z
m-1259 5 c6 -36 -37 -79 -121 -119 -46 -23 -89 -41 -95 -41 -16 0 7 45 45 90
59 71 163 113 171 70z m2270 -3 c5 -26 -22 -63 -66 -90 -42 -26 -162 -79 -162
-72 0 11 53 88 78 114 62 65 142 90 150 48z"/>
<path d="M3920 1889 c-58 -10 -123 -21 -145 -24 -22 -3 -65 -10 -95 -15 -30
-5 -77 -12 -105 -15 -27 -4 -57 -8 -65 -11 -8 -2 -38 -6 -65 -9 -28 -3 -61 -8
-75 -10 -14 -3 -45 -7 -70 -10 -25 -3 -108 -15 -185 -25 -77 -11 -167 -22
-200 -25 -33 -3 -69 -7 -80 -9 -11 -3 -56 -8 -100 -11 -44 -4 -89 -9 -100 -11
-11 -2 -93 -7 -181 -10 -115 -5 -163 -3 -168 5 -4 6 -3 11 3 11 16 0 81 61 81
76 0 7 -10 22 -21 33 -22 21 -109 35 -214 34 -75 0 -382 -14 -402 -17 -10 -2
-61 -7 -113 -11 -52 -3 -106 -8 -120 -10 -14 -2 -59 -7 -100 -11 -41 -3 -88
-8 -105 -10 -16 -1 -64 -6 -105 -9 -41 -3 -82 -8 -90 -10 -8 -2 -46 -7 -85
-10 -38 -4 -81 -8 -95 -10 -14 -2 -47 -6 -75 -9 -77 -9 -387 -46 -415 -51 -14
-2 -34 -4 -45 -4 -35 -2 -48 -16 -36 -39 9 -17 18 -20 48 -16 21 3 142 18 268
34 127 16 259 31 295 35 36 3 76 8 90 10 23 4 49 6 190 20 30 3 75 7 100 10
72 8 138 14 235 20 50 4 104 8 122 10 157 18 552 26 587 12 18 -7 16 -10 -15
-28 -68 -41 -77 -79 -26 -106 26 -14 57 -16 172 -15 77 1 151 4 165 7 14 3 59
7 100 10 41 3 86 8 100 10 26 4 83 10 180 20 30 4 66 8 80 10 14 2 52 6 85 10
95 12 103 13 142 19 21 3 56 8 78 10 22 3 90 12 150 21 61 9 126 18 145 21 19
3 46 7 60 9 14 3 39 7 55 9 322 50 344 57 315 90 -15 19 -15 19 -150 -5z"/>
</g>
</svg>
