<?xml version="1.0" standalone="no"?>
<!DOCTYPE svg PUBLIC "-//W3C//DTD SVG 20010904//EN"
 "http://www.w3.org/TR/2001/REC-SVG-20010904/DTD/svg10.dtd">
<svg version="1.0" xmlns="http://www.w3.org/2000/svg"
 width="700.000000pt" height="700.000000pt" viewBox="0 0 700.000000 700.000000"
 preserveAspectRatio="xMidYMid meet">
<metadata>
Created by potrace 1.11, written by Peter Selinger 2001-2013
</metadata>
<g transform="translate(0.000000,700.000000) scale(0.100000,-0.100000)"
fill="#000000" stroke="none">
<path d="M120 6992 c0 -11 93 -70 123 -77 14 -4 31 -13 37 -20 7 -8 27 -19 45
-25 20 -7 43 -26 58 -49 14 -21 46 -51 71 -67 82 -51 46 -57 -44 -7 -75 42
-165 52 -322 38 l-88 -8 0 -393 0 -392 68 -21 c50 -16 102 -22 193 -25 95 -3
140 -9 194 -26 140 -46 415 -26 446 32 5 10 14 18 20 18 6 0 18 7 26 16 24 23
77 12 137 -30 69 -47 90 -53 168 -52 53 1 70 5 81 20 13 18 16 18 85 2 39 -9
88 -16 109 -16 21 0 89 -14 151 -30 69 -19 119 -27 128 -22 9 5 45 -2 97 -20
63 -22 93 -27 130 -23 26 3 55 1 66 -4 10 -6 38 -12 62 -14 45 -4 133 -17 294
-44 50 -8 123 -28 163 -44 99 -39 383 -86 420 -69 16 7 48 9 88 5 58 -7 63 -6
75 16 17 34 28 39 81 34 54 -6 59 -2 73 70 l10 50 65 7 c53 6 69 12 88 34 24
28 24 54 0 117 -17 43 -4 103 31 142 50 57 40 126 -24 165 -36 22 -36 23 -30
75 6 48 4 55 -19 81 -15 16 -34 45 -44 64 -11 23 -33 42 -67 60 -46 23 -50 28
-50 61 0 42 -24 74 -63 84 -14 3 -37 14 -51 24 -14 10 -42 23 -61 30 -19 6
-48 27 -63 46 -38 48 -65 60 -206 89 -68 15 -129 30 -135 34 -6 4 -78 10 -161
13 -99 4 -194 15 -280 33 -118 23 -152 26 -361 26 -228 0 -268 -4 -327 -36
-24 -14 -33 -14 -75 0 -107 34 -156 37 -482 34 l-325 -3 109 -18 c60 -10 134
-27 165 -38 62 -22 66 -24 131 -34 54 -8 112 -34 105 -45 -6 -10 -65 -3 -122
16 -23 7 -59 14 -80 15 -56 3 -122 19 -171 41 -85 40 -292 32 -292 -11 0 -21
-38 -11 -55 15 -42 65 -40 64 -225 64 -93 0 -170 -3 -170 -8z"/>
<path d="M6660 5678 c-95 -53 -165 -62 -180 -23 -9 25 -65 48 -85 36 -5 -3
-21 -6 -35 -7 -14 0 -41 -7 -60 -17 -107 -50 -135 -56 -179 -41 -24 8 -57 14
-74 14 -109 -1 -156 7 -191 33 -39 30 -77 34 -120 12 -15 -8 -34 -15 -41 -15
-7 0 -31 -21 -53 -47 -40 -48 -40 -48 -74 -34 -65 26 -75 25 -180 -27 -97 -47
-106 -50 -164 -45 -72 6 -91 -7 -100 -68 -4 -22 -14 -49 -23 -59 -16 -19 -17
-19 -75 0 -75 25 -111 25 -147 0 -39 -28 -173 -254 -199 -335 -18 -57 -34 -92
-110 -245 -135 -271 -144 -294 -141 -388 2 -90 14 -122 46 -122 32 0 168 -51
190 -71 15 -15 20 -35 23 -91 2 -40 8 -83 14 -95 13 -27 142 -86 170 -77 30 9
62 -28 126 -145 58 -106 91 -142 115 -123 6 5 26 13 44 17 41 8 72 -20 98 -90
62 -173 90 -204 155 -170 25 13 34 14 46 4 26 -22 44 -66 60 -149 8 -44 35
-132 59 -194 25 -63 45 -121 45 -130 0 -39 63 -205 97 -254 l38 -55 -3 -180
c-2 -163 -4 -184 -24 -214 -20 -34 -20 -36 -4 -136 9 -56 24 -138 33 -182 8
-44 18 -162 22 -261 7 -211 13 -226 84 -222 38 3 41 1 50 -32 9 -34 3 -196 -9
-253 -4 -15 -13 -27 -21 -27 -18 0 -43 -60 -43 -104 0 -32 -3 -36 -37 -46
-106 -30 -134 -65 -91 -114 21 -24 32 -27 108 -32 85 -5 108 -10 207 -41 44
-14 62 -15 110 -6 32 6 73 9 91 6 22 -4 41 1 60 13 22 15 42 18 107 16 45 -2
95 -10 114 -19 29 -13 43 -14 86 -4 29 7 64 9 78 6 34 -9 85 19 98 53 13 34 4
80 -31 163 -15 37 -38 116 -49 177 -12 61 -28 130 -37 154 -8 23 -22 103 -30
175 -7 73 -16 150 -20 170 -5 35 -1 43 46 98 61 70 71 92 64 137 -7 45 37 228
75 311 16 37 28 67 25 67 -2 0 38 85 91 189 l95 189 0 1478 c0 913 -4 1485
-10 1494 -7 12 -36 16 -132 18 l-123 3 -75 -43z"/>
<path d="M3254 5165 c-14 -9 -33 -53 -58 -132 -21 -65 -41 -127 -46 -138 -4
-11 -25 -72 -45 -135 -58 -178 -61 -183 -121 -196 -67 -15 -300 -28 -345 -19
-43 9 -76 57 -94 140 -7 33 -20 89 -28 125 -9 36 -21 111 -27 167 -17 157 -23
169 -90 163 -29 -2 -43 -13 -46 -37 -2 -9 -7 -26 -13 -38 -6 -11 -47 -126 -92
-255 -84 -242 -200 -520 -225 -541 -18 -15 -18 -39 2 -67 14 -21 14 -26 -5
-62 -11 -22 -22 -50 -25 -62 -2 -13 -7 -40 -11 -60 -7 -36 -6 -38 17 -38 21 0
69 -40 67 -55 0 -3 1 -11 4 -18 11 -30 18 8 19 99 1 74 -3 109 -16 138 l-17
38 45 44 c72 68 88 77 122 62 16 -6 37 -19 47 -27 16 -13 20 -12 46 19 19 23
33 31 44 27 25 -9 23 -97 -2 -128 l-19 -24 -24 22 -24 23 -18 -50 c-14 -39
-17 -65 -11 -119 6 -64 4 -78 -35 -197 -46 -139 -76 -204 -96 -204 -14 0 -22
45 -28 158 -4 73 -10 92 -23 78 -4 -4 -9 -116 -11 -249 l-4 -242 -39 -100
c-21 -55 -43 -107 -49 -115 -32 -51 -45 80 -45 471 0 137 -2 249 -5 249 -20 0
-126 -250 -165 -390 -7 -25 -32 -88 -55 -140 -23 -52 -61 -147 -85 -210 -24
-63 -64 -167 -90 -230 -25 -63 -75 -189 -110 -280 l-63 -166 10 -121 c6 -67 8
-129 4 -139 -8 -22 -52 -13 -103 20 -22 14 -74 31 -123 41 -47 9 -108 27 -137
40 -29 13 -96 33 -150 44 -54 11 -152 32 -219 46 -139 29 -358 49 -453 41 -37
-3 -94 -5 -128 -6 l-63 0 0 -1215 0 -1215 543 0 544 0 24 28 c13 16 29 37 35
48 6 10 25 25 42 33 25 12 36 27 56 80 14 36 30 96 37 133 10 61 9 72 -8 105
-22 42 -22 41 17 133 25 61 27 73 24 200 -2 132 -1 137 31 215 18 44 40 98 48
120 8 22 23 57 31 77 9 21 17 41 17 45 3 26 49 95 94 143 28 30 68 83 89 117
20 34 44 64 54 67 26 8 97 15 212 21 58 4 182 16 275 27 94 11 205 22 247 25
92 7 99 12 132 109 13 38 35 99 49 135 14 40 22 78 19 97 -2 17 1 46 8 64 6
18 36 118 66 221 30 104 66 215 79 248 14 32 25 66 25 76 0 10 30 113 66 228
36 116 85 275 109 355 23 80 65 214 94 299 28 85 67 214 87 285 44 161 89 299
108 329 7 12 21 47 31 77 9 30 29 71 44 90 18 24 36 72 55 148 31 124 31 157
2 367 -8 61 -18 143 -21 183 -4 41 -8 81 -10 91 -2 9 -6 43 -10 74 -5 42 -13
62 -28 72 -27 19 -37 19 -63 0z m-844 -466 c20 -176 9 -299 -31 -335 -16 -14
-18 -14 -24 5 -3 11 -2 28 3 38 13 24 5 132 -11 151 -21 26 -14 140 11 196 29
64 40 53 52 -55z m-535 -1181 c11 -35 16 -105 21 -349 l6 -265 -32 -85 c-46
-121 -61 -149 -75 -149 -22 0 -26 30 -40 285 -3 55 -9 134 -12 175 -13 136 1
218 54 325 31 62 42 75 60 75 7 0 16 -6 18 -12z m-185 -508 c5 -10 12 -56 15
-102 2 -46 10 -171 16 -279 l11 -196 -26 -69 c-15 -38 -32 -81 -38 -96 -14
-37 -33 -52 -45 -36 -13 17 -33 111 -33 154 0 19 -4 34 -10 34 -5 0 -10 -17
-10 -37 -1 -21 -2 -109 -3 -195 -2 -126 -5 -158 -16 -158 -9 0 -12 9 -8 33 4
30 -9 77 -22 77 -3 1 -19 11 -34 24 -36 29 -46 73 -48 211 -1 90 3 120 21 167
28 74 46 90 70 60 10 -12 20 -28 23 -35 13 -36 22 22 28 171 5 149 8 172 30
217 13 28 28 56 32 63 12 18 35 15 47 -8z"/>
</g>
</svg>
